<?xml version="1.0" encoding="UTF-8"?>
<!DOCTYPE svg PUBLIC "-//W3C//DTD SVG 1.1//EN" "http://www.w3.org/Graphics/SVG/1.1/DTD/svg11.dtd">
<!-- Creator: CorelDRAW X7 -->
<svg xmlns="http://www.w3.org/2000/svg" xml:space="preserve" width="90.264mm" height="86.268mm" version="1.1" style="shape-rendering:geometricPrecision; text-rendering:geometricPrecision; image-rendering:optimizeQuality; fill-rule:evenodd; clip-rule:evenodd"
viewBox="0 0 9026 8627"
 xmlns:xlink="http://www.w3.org/1999/xlink">
 <defs>
  <style type="text/css">
   <![CDATA[
    .str1 {stroke:#FFED00;stroke-width:7.62}
    .str0 {stroke:#A82848;stroke-width:7.62}
    .fil1 {fill:none}
    .fil3 {fill:#FFED00}
    .fil0 {fill:#FBEA09}
    .fil5 {fill:#3192CF}
    .fil4 {fill:#A82848}
    .fil2 {fill:#FFED00;fill-rule:nonzero}
   ]]>
  </style>
 </defs>
 <g id="Слой_x0020_1">
  <metadata id="CorelCorpID_0Corel-Layer"/>
  <g id="_2416909262912">
   <g>
    <path class="fil0" d="M3393 3584l0 0 0 0 0 0zm-254 1174c685,-715 685,-715 685,-715l-685 715zm2627 -3021l0 0 1 0 -1 0zm-2491 -159c0,0 0,0 0,0l0 0zm669 1357l195 -201 193 203 -195 202 -193 -204zm1321 787l88 21 0 1 0 0 0 0 0 0 1 0 0 1 0 0 1 1 1 1 1 1 1 1 1 1 1 1 2 2 2 2 2 2 2 2 2 2 2 3 3 3 3 3 3 3 4 4 3 4 4 4 4 4 5 5 5 5 5 5 5 6 6 6 6 6 6 6 7 7 7 8 7 7 8 9 8 8 9 9 8 9 10 10 10 10 10 11 10 11 11 11 12 12 12 13 12 13 13 13 13 14 14 15 15 15 14 15 16 16 16 17 16 17 17 18 18 18 18 19 19 20 19 20 20 21 20 21 22 22 21 23 23 23 23 24 23 25 25 25 25 26 25 27 26 28 12 81 118 124 159 -240 -82 -86 -76 -12 -685 -716 -23 -90 -139 -146 -195 202 140 147zm-279 290l87 21 0 0 0 1 0 0 0 0 1 0 0 1 1 0 0 1 1 1 1 0 1 2 1 1 2 1 1 2 2 2 2 2 2 2 2 2 3 3 2 3 3 3 3 3 4 4 3 3 4 5 5 4 4 5 5 5 5 5 5 6 6 5 6 7 6 6 7 7 7 8 7 7 8 8 8 9 9 9 9 9 9 10 10 10 10 11 10 11 11 11 12 12 12 13 12 13 13 13 14 14 13 15 15 15 15 15 15 16 16 17 16 17 17 18 18 18 18 19 19 20 19 20 20 21 21 21 21 22 21 23 23 23 23 24 23 25 25 25 25 26 25 27 27 27 11 82 128 134 193 -204 -126 -132 -76 -12 -685 -716 -23 -90 -139 -146 -194 202 140 147zm-451 169l140 146 87 22 1 0 0 1 1 0 0 1 1 0 0 1 1 1 1 1 2 1 1 2 2 1 1 2 2 2 2 2 3 3 2 2 3 3 3 3 3 4 3 3 4 4 4 4 4 4 4 5 5 5 5 5 6 6 5 6 6 6 7 7 6 7 7 7 8 8 7 8 9 8 8 9 9 10 9 9 10 11 10 10 11 11 11 12 11 12 12 12 13 13 13 14 13 14 14 14 14 15 15 16 15 16 16 16 17 17 17 18 17 19 19 19 18 19 20 20 19 21 21 21 21 22 22 23 22 24 23 24 24 24 24 26 25 26 26 26 26 28 12 81 83 88 232 -163 -121 -127 -76 -12 -685 -716 -22 -90 -140 -146 -194 203zm-1698 253l685 -716 86 -23 140 -146 -194 -203 -140 146 -21 91 0 1 0 0 0 0 -1 0 0 1 -1 0 0 1 -1 1 -1 1 -1 1 -1 1 -2 2 -1 1 -2 2 -2 2 -2 2 -2 3 -3 2 -2 3 -3 3 -3 3 -4 4 -4 4 -3 4 -5 4 -4 5 -5 5 -5 5 -5 6 -6 6 -6 6 -6 7 -7 6 -7 8 -7 8 -8 8 -8 8 -9 9 -9 9 -9 10 -10 10 -10 11 -10 11 -12 11 -11 12 -12 13 -12 13 -13 13 -14 14 -13 15 -15 15 -15 15 -15 16 -16 17 -16 17 -18 18 -17 18 -18 19 -19 20 -19 20 -20 21 -21 21 -21 22 -21 23 -23 23 -23 24 -23 25 -25 25 -25 26 -25 27 -27 28 -78 12 -101 105 158 240 137 -142 12 -79zm987 -391l86 -24 140 -145 -194 -203 -140 146 -21 91 0 0 0 0 0 0 0 0 -1 1 0 0 -1 1 0 0 -1 1 -1 1 -1 1 -1 2 -2 1 -1 2 -2 1 -2 2 -2 3 -2 2 -3 3 -2 2 -3 3 -3 4 -4 3 -3 4 -4 4 -5 5 -4 4 -5 5 -5 5 -5 6 -6 6 -6 6 -6 7 -7 7 -7 7 -7 8 -8 8 -8 9 -9 8 -9 10 -9 9 -10 11 -10 10 -10 11 -11 12 -12 12 -12 12 -12 13 -13 14 -14 14 -13 14 -15 15 -15 16 -15 16 -16 16 -16 18 -17 17 -18 19 -18 19 -19 19 -19 20 -20 21 -21 22 -21 22 -21 22 -23 24 -23 24 -23 24 -25 26 -25 26 -25 27 -27 27 -78 12 -143 149 196 200 141 -146 12 -79 685 -715zm504 123l-194 -203 -141 146 -20 91 0 0 -1 1 0 0 0 0 0 0 -1 1 0 0 0 1 -1 0 -1 1 -1 2 -2 1 -1 1 -5 6 -2 2 -8 8 -3 3 -43 45 -6 7 -7 6 -6 7 -7 7 -115 121 -13 12 -26 28 -14 14 -60 64 -17 17 -17 18 -36 37 -18 19 -20 21 -19 20 -21 22 -21 22 -22 23 -22 23 -23 24 -24 25 -24 25 -25 26 -26 27 -26 27 -78 13 -131 136 231 164 94 -97 11 -80 685 -715 87 -23 140 -146zm1716 -2137l-1 1 0 0 0 0 -1 1 -1 1 -1 1 -1 1 -1 1 -1 2 -2 1 -2 2 -1 2 -3 2 -2 3 -2 2 -3 3 -3 3 -3 3 -4 4 -3 4 -4 4 -4 4 -5 5 -5 5 -5 5 -5 6 -6 6 -6 6 -6 7 -7 7 -7 7 -7 8 -8 8 -8 8 -8 9 -9 9 -10 10 -9 10 -11 11 -10 11 -11 12 -12 12 -12 12 -12 13 -13 13 -13 14 -14 15 -15 15 -14 15 -16 16 -16 17 -16 17 -17 18 -18 18 -18 19 -19 20 -19 20 -20 21 -20 21 -21 22 -22 23 -23 23 -23 24 -23 25 -24 25 -25 27 -26 26 -26 28 -78 12 -151 156 193 204 151 -157 12 -79 685 -716 86 -23 79 -82 -156 -242 -117 122 -21 91 0 0 0 0 0 0 0 0zm-277 -293l0 1 -1 0 0 0 0 0 -1 1 0 0 0 1 -1 1 -1 1 -1 1 -2 1 -1 1 -1 2 -2 2 -2 2 -2 2 -2 2 -3 3 -3 3 -3 3 -3 3 -3 4 -4 4 -4 4 -4 4 -4 5 -5 5 -5 5 -6 6 -5 5 -6 7 -7 6 -6 7 -7 8 -8 7 -7 8 -9 9 -8 9 -9 9 -9 10 -10 10 -10 11 -11 11 -11 11 -11 12 -12 13 -13 13 -13 13 -13 14 -14 15 -14 15 -15 15 -15 16 -16 17 -17 17 -17 18 -17 18 -19 19 -18 20 -20 20 -19 21 -21 21 -21 22 -22 23 -22 23 -23 24 -24 25 -24 25 -25 26 -26 27 -26 28 -78 12 -151 156 194 204 151 -157 11 -79 685 -716 87 -23 124 -130 -191 -206 -128 133 -20 91zm-302 -324l0 0 -1 0 0 0 0 1 0 0 -1 0 -321 336 -17 18 -71 74 -20 20 -20 21 -20 22 -21 22 -22 22 -22 24 -23 24 -24 24 -24 26 -25 26 -26 27 -26 27 -78 13 -151 156 194 203 151 -156 11 -80 685 -715 86 -24 114 -118 -230 -166 -78 82 -20 91zm-2190 166l0 0 0 1 1 0 0 0 1 1 1 1 1 1 1 1 1 1 1 2 2 1 2 2 1 2 2 2 3 3 2 2 3 3 3 3 3 3 3 4 4 4 4 4 4 4 5 5 4 5 6 5 5 6 6 6 6 6 6 7 7 7 7 7 7 8 8 8 8 8 8 9 9 9 10 10 9 10 11 11 10 11 11 12 12 11 12 13 12 13 13 13 13 14 14 15 14 15 15 15 16 16 16 17 16 17 17 18 18 18 18 19 19 20 19 20 20 21 20 21 21 22 22 23 22 23 23 24 24 25 24 25 25 26 26 27 26 28 12 81 150 158 195 -202 -150 -158 -76 -12 -686 -716 -22 -90 -100 -104 -228 167 134 140 87 22 1 0 0 0 0 0zm-280 290l1 0 0 1 0 0 1 1 1 1 1 1 1 1 1 1 1 2 2 1 2 2 2 2 2 2 2 3 2 2 3 3 3 3 3 3 4 4 3 4 4 4 4 4 5 5 5 5 5 5 5 6 6 6 6 6 6 7 7 6 7 8 7 8 8 8 8 8 9 9 8 9 10 10 10 10 10 11 10 11 11 11 12 12 12 13 12 13 13 13 13 14 14 15 15 15 14 15 16 16 16 17 16 17 17 18 18 18 18 19 19 20 19 20 20 21 20 21 22 22 21 23 23 23 23 24 23 25 25 25 25 26 25 27 26 28 12 81 150 158 195 -202 -150 -158 -76 -12 -685 -716 -23 -90 -139 -146 -195 202 140 147 88 21 0 1 0 0 0 0 0 0zm-328 -38l-154 243 84 89 87 21 0 0 1 0 0 1 0 0 0 0 0 0 1 1 0 0 1 1 1 1 1 1 1 2 2 1 1 2 2 1 2 2 2 3 2 2 3 3 3 2 2 4 4 3 3 3 4 4 4 4 4 5 4 4 5 5 5 6 5 5 6 6 6 6 6 7 7 7 7 7 8 8 7 8 8 9 9 9 9 9 9 10 10 10 10 10 11 11 11 12 11 12 12 12 13 13 12 14 14 14 14 14 14 15 15 16 15 16 16 16 17 18 17 17 17 19 18 19 19 19 19 20 20 21 21 22 21 22 22 22 22 24 23 24 24 24 24 26 25 26 26 27 26 27 12 82 149 157 195 -202 -150 -158 -76 -12 -685 -715 -22 -90 -124 -129zm1566 1413l195 -202 193 204 -195 201 -193 -203zm11 -621l195 -202 193 203 -194 202 -194 -203zm-294 925l195 -202 193 203 -194 202 -194 -203zm590 -614l195 -202 193 203 -195 202 -193 -203zm-882 307l195 -202 193 203 -194 202 -194 -203zm1180 -2l195 -202 193 203 -195 202 -193 -203zm-590 625l195 -202 193 204 -195 202 -193 -204zm298 -311l195 -201 193 203 -195 202 -193 -204z"/>
   </g>
   <path class="fil1" d="M1847 6296c1499,1577 4767,1032 5502,-414"/>
   <path class="fil2 str0" d="M2966 6406l-175 117 77 42 -30 58 -109 -60 -82 163 -81 -45 82 -162 -108 -60 30 -58 76 42 -6 -217 89 49 1 145c1,18 0,33 -3,45 10,-10 22,-19 35,-28l115 -80 89 49zm35 12l313 125 -150 409 -90 -36 124 -340 -134 -54 -64 175c-18,50 -33,84 -44,103 -11,18 -25,30 -44,35 -18,6 -42,3 -72,-9 -11,-5 -29,-13 -57,-26l24 -64 20 8c19,7 32,10 41,8 8,-2 15,-12 22,-30l25 -71 86 -233zm365 587l87 -353 -137 -37 18 -72 367 100 -17 71 -137 -37 -88 353 -93 -25zm429 89l54 -360 -140 -23 11 -74 375 62 -11 73 -139 -23 -54 360 -96 -15zm308 -397l97 2 -3 175 130 3c33,0 63,5 87,14 24,9 44,24 60,46 16,23 24,48 23,76 0,30 -9,55 -26,76 -18,22 -37,35 -58,42 -20,7 -51,10 -91,9l-226 -4 7 -439zm91 366l95 2c30,1 51,0 63,-3 11,-2 22,-8 31,-17 10,-10 15,-21 15,-35 0,-19 -7,-34 -22,-44 -15,-10 -42,-15 -82,-16l-98 -2 -2 115zm364 -357l97 1 -7 439 -97 -2 7 -438zm550 486l-79 9 -10 -95 -32 4 -69 -107c-1,-1 -3,-4 -6,-8 -2,-2 -7,-9 -14,-19 -13,-18 -23,-29 -29,-33 -10,-8 -24,-10 -43,-9l20 192 -96 10 -45 -436 96 -10 19 185c24,-5 41,-16 51,-33 2,-5 8,-24 19,-59 13,-45 29,-75 46,-90 18,-16 52,-27 100,-32 2,-1 7,-1 14,-2l6 65 -13 1c-32,3 -53,14 -63,34 -4,10 -11,30 -19,59 -5,19 -10,33 -16,41 -6,11 -17,22 -32,32 22,3 41,12 56,27 18,17 36,39 53,66l29 44 40 -4 17 168zm443 -636l-58 208 84 -21 15 64 -120 30 41 179 -89 22 -41 -178 -118 29 -15 -64 84 -21 -141 -159 97 -24 92 107c12,14 21,26 27,37 1,-15 4,-30 8,-45l36 -140 98 -24zm48 -10l317 -112 135 415 -92 33 -112 -345 -136 48 58 177c16,51 26,87 28,108 3,22 -1,41 -11,57 -11,16 -32,30 -62,40 -11,4 -31,10 -59,18l-22 -65 21 -7c19,-6 31,-13 36,-20 5,-7 5,-20 -1,-39l-23 -71 -77 -237zm938 79l-96 45 -77 -73 -175 83 4 108 -94 44 -4 -479 93 -44 349 316zm-231 -82l-125 -119 6 176 119 -57zm271 46l-237 -362 80 -57 93 142 156 -111 -93 -143 80 -57 237 362 -80 57 -104 -158 -155 111 103 158 -80 58z"/>
   <path class="fil3" d="M6675 2169l618 -139c52,-11 62,53 31,71l-508 364c-123,3 -189,-225 -141,-296z"/>
   <path class="fil3" d="M6415 1714l584 -253c49,-20 70,41 43,64l-437 454c-121,26 -225,-186 -190,-265z"/>
   <path class="fil3" d="M6075 1356l526 -366c45,-30 77,26 54,55l-344 533c-114,50 -256,-137 -236,-222z"/>
   <path class="fil3" d="M5677 1060l434 -481c37,-39 80,8 64,41l-221 600c-100,76 -278,-73 -277,-160z"/>
   <path class="fil3" d="M5245 848l332 -562c29,-46 80,-9 71,26l-100 635c-84,95 -287,-14 -303,-99z"/>
   <path class="fil3" d="M4770 707l223 -617c20,-51 77,-26 75,11l17 643c-65,110 -284,44 -315,-37z"/>
   <path class="fil3" d="M6824 2606l631 42c52,4 46,69 11,77l-583 206c-120,-32 -124,-270 -59,-325z"/>
   <path class="fil3" d="M6936 3148l615 151c51,14 34,77 -1,79l-608 101c-113,-52 -79,-288 -6,-331z"/>
   <path class="fil3" d="M3347 928l-138 -644c-11,-54 50,-65 68,-33l353 527c4,129 -214,200 -283,150z"/>
   <path class="fil3" d="M2914 1204l-247 -607c-20,-52 38,-74 61,-46l438 452c26,126 -176,237 -252,201z"/>
   <path class="fil3" d="M2575 1562l-356 -546c-28,-46 25,-80 52,-57l514 355c49,118 -129,268 -210,248z"/>
   <path class="fil3" d="M2295 1981l-464 -448c-38,-39 6,-84 38,-68l577 225c73,104 -68,291 -151,291z"/>
   <path class="fil3" d="M2096 2434l-541 -342c-45,-29 -10,-83 24,-74l609 99c91,86 -10,300 -92,317z"/>
   <path class="fil3" d="M1966 2931l-594 -227c-49,-20 -25,-80 11,-78l615 -24c106,67 45,296 -32,329z"/>
   <path class="fil3" d="M1907 3457l-614 -155c-51,-14 -34,-77 1,-79l609 -98c112,54 77,289 4,332z"/>
   <path class="fil3" d="M3765 769l34 -659c4,-55 65,-49 74,-13l203 608c-30,124 -258,131 -311,64z"/>
   <path class="fil3" d="M4253 683l127 -647c12,-53 72,-37 75,-1l115 633c-47,118 -274,90 -317,15z"/>
   <path class="fil3" d="M6665 4387l617 145c52,11 62,-53 32,-71l-505 -369c-123,-4 -191,224 -144,295z"/>
   <path class="fil3" d="M6401 4840l581 258c50,21 71,-40 44,-64l-433 -458c-120,-27 -226,184 -192,264z"/>
   <path class="fil3" d="M6058 5194l523 371c44,30 76,-25 54,-54l-340 -536c-113,-51 -256,134 -237,219z"/>
   <path class="fil3" d="M5657 5486l429 485c37,40 81,-7 65,-40l-215 -603c-100,-76 -279,71 -279,158z"/>
   <path class="fil3" d="M5223 5694l327 565c29,47 80,10 72,-25l-95 -636c-83,-95 -287,11 -304,96z"/>
   <path class="fil3" d="M4747 5830l218 620c19,51 76,26 74,-11l23 -643c-63,-110 -283,-47 -315,34z"/>
   <path class="fil3" d="M6818 3951l631 -35c53,-4 46,-69 12,-77l-582 -212c-119,31 -126,269 -61,324z"/>
   <path class="fil3" d="M3326 5595l-144 643c-11,54 50,66 68,34l358 -524c4,-129 -213,-202 -282,-153z"/>
   <path class="fil3" d="M2896 5315l-253 605c-21,51 38,74 61,46l442 -448c27,-125 -174,-238 -250,-203z"/>
   <path class="fil3" d="M2560 4953l-361 543c-29,46 24,80 51,57l517 -350c50,-117 -126,-269 -207,-250z"/>
   <path class="fil3" d="M2283 4532l-468 444c-38,38 6,84 38,68l579 -219c74,-103 -65,-292 -149,-293z"/>
   <path class="fil3" d="M2088 4077l-544 337c-44,29 -10,83 24,74l610 -93c92,-85 -8,-300 -90,-318z"/>
   <path class="fil3" d="M1963 3578l-596 222c-49,20 -25,80 10,78l615 30c106,-65 48,-296 -29,-330z"/>
   <path class="fil3" d="M3742 5758l28 660c4,55 66,49 74,13l209 -605c-29,-125 -257,-134 -311,-68z"/>
   <path class="fil3" d="M4230 5849l121 648c11,54 72,38 75,2l120 -631c-46,-119 -272,-93 -316,-19z"/>
   <polygon class="fil4 str1" points="3989,2639 3599,1880 3258,1187 3220,1157 3210,970 3320,1085 3317,1142 3338,1178 3339,1152 3366,1115 3408,1070 3443,1034 3494,1013 3554,1015 3606,1039 3649,1080 3699,1118 3733,1170 3748,1214 3752,1250 3766,1256 3778,1248 3789,1219 3806,1155 3848,1101 3906,1058 3959,1038 3987,1039 4010,1040 4033,1063 4080,1067 4109,1081 4145,1084 4183,1073 4216,1048 4258,1052 4216,1102 4192,1127 4157,1136 4105,1141 4063,1128 4011,1117 3956,1113 3916,1135 3886,1166 3862,1204 3856,1232 3872,1244 3892,1240 3936,1206 3986,1164 4036,1157 4083,1177 4135,1192 4179,1217 4148,1236 4094,1240 4017,1239 3966,1261 3954,1289 3950,1341 3943,1386 3945,1483 3904,1524 3851,1554 3809,1574 3770,1575 3737,1565 3698,1542 3655,1512 3627,1487 3540,1384 3507,1361 3481,1367 3464,1398 3473,1425 4099,2682 4277,3036 4324,3069 4349,3054 4367,3021 4362,2984 4328,2930 4277,2845 4251,2754 4270,2679 4305,2621 4365,2577 4413,2500 4432,2424 4467,2287 4530,2182 4568,2124 4600,2120 4612,2151 4640,2184 4665,2226 4696,2269 4699,2333 4710,2443 4726,2411 4737,2313 4756,2209 4780,2087 4809,2084 4815,2032 4814,1971 4840,1930 4866,1924 4896,1946 4907,1987 4878,2034 4853,2068 4874,2117 4907,2160 4925,2249 4937,2357 4932,2446 4916,2498 4870,2545 4818,2589 4805,2638 4868,2622 4912,2631 4961,2673 5019,2762 5039,2815 5058,2872 5068,2968 5140,2925 5180,2919 5330,3052 5350,3103 5323,3163 5204,3263 5186,3323 5236,3347 5283,3357 5329,3376 5412,3291 5494,3219 5554,3175 5603,3166 5665,3165 5730,3176 5793,3200 5857,3246 5903,3309 5940,3395 5961,3504 5961,3604 5978,3655 5997,3698 6024,3751 6057,3792 6105,3836 6060,3854 6030,3851 6001,3848 5972,3838 5908,3812 5871,3775 5840,3725 5835,3740 5835,3767 5843,3828 5837,3846 5817,3844 5803,3836 5783,3807 5767,3767 5756,3769 5746,3795 5723,3795 5705,3773 5680,3714 5661,3639 5641,3577 5606,3592 5589,3559 5604,3525 5592,3467 5562,3426 5506,3359 5443,3374 5407,3396 5399,3434 5460,3507 5521,3578 5559,3643 5583,3727 5592,3868 5579,4005 5533,4072 5536,4144 5579,4232 5643,4316 5813,4429 5841,4468 5831,4508 5801,4524 5794,4552 5815,4682 5871,4815 5877,5004 5827,5030 5773,5105 5773,5147 5794,5194 5614,5217 5612,5178 5671,5120 5670,5073 5758,4957 5788,4841 5736,4758 5722,4677 5674,4557 5590,4463 5524,4407 5428,4358 5327,4296 5240,4225 5222,4238 5228,4284 5269,4351 5259,4389 5280,4431 5350,4507 5355,4543 5314,4612 5249,4677 5216,4760 5206,4822 5202,4881 5108,4989 5201,5073 5164,5122 5177,5175 5179,5231 5136,5221 4968,4996 5183,4629 5174,4566 5013,4412 4836,4176 4768,4219 4606,4244 4389,4263 4389,4307 4341,4321 4294,4312 4272,4341 4215,4359 4245,5106 4276,5097 4292,5215 4192,5239 4197,5366 4013,5380 4034,5308 4118,5194 4169,5091 4149,4962 4118,4744 4004,4468 3953,4398 3936,4317 3557,4421 3532,4449 3533,4476 3555,4530 3615,4585 3821,4740 3895,4666 4034,4781 3964,4847 3879,4870 3762,4833 3675,4779 3509,4620 3389,4477 3347,4390 3370,4349 3451,4303 3726,4149 3666,4095 3639,4019 3646,3950 3619,3863 3631,3714 3691,3584 3710,3347 3646,3095 3584,3087 3408,3238 3319,3302 3264,3265 3260,3222 3252,3138 3396,2811 3299,2694 3424,2634 3593,2575 3713,2568 3815,2569 3915,2601 "/>
   <path class="fil0 str1" d="M3638 8005c-13,-12 -68,-15 -99,-3 -28,9 -45,24 -51,36 23,9 48,21 75,12 28,-6 66,-30 75,-45z"/>
   <path class="fil5 str1" d="M6192 7180c-168,101 -257,159 -271,177 -21,15 -120,24 -295,28 -182,0 -361,21 -536,58 -133,32 -327,92 -577,183 -61,22 -125,45 -192,71 -343,131 -539,217 -577,253 -20,19 -85,-12 -93,0l-123 22c-24,-15 -100,52 -93,89 0,18 -10,0 42,14 58,22 110,7 147,-9 52,-15 189,-52 247,-116 161,-33 237,-43 261,-58 21,-12 -41,40 -89,95l58 19c-85,39 -120,69 -109,88 10,27 72,45 181,54 111,9 217,12 320,12 6,0 13,0 21,0 103,1 311,8 616,19 343,-151 769,-249 950,-557 44,-12 394,-68 576,-101 182,-31 302,-64 361,-89 96,-40 144,-76 133,-106 -3,-19 -62,-43 -172,-77 142,-6 230,-21 255,-43 24,-21 17,-33 -17,-42 -32,-6 -45,-22 -35,-43 3,-18 55,-33 155,-46 99,-12 157,-27 175,-49 13,-18 -4,-30 -48,-43 -45,-9 -66,-23 -63,-45 4,-18 31,-28 83,-24 51,2 86,-4 106,-16 24,-16 55,-30 97,-39 44,-13 68,-28 68,-49 -7,-22 -27,-28 -58,-21 -35,5 -55,3 -69,-16 -21,-12 0,-30 59,-61 61,-27 99,-48 120,-58 24,-9 68,-27 137,-61 69,-30 107,-58 106,-82 0,-19 -34,-25 -96,-19 -65,10 -96,0 -96,-24 0,-18 45,-61 130,-131 90,-74 127,-122 117,-143 -21,-22 -55,-19 -114,3 -51,24 -82,27 -95,9 -18,-12 13,-70 95,-174 86,-104 117,-167 96,-186 -20,-15 -37,-18 -65,-3 -23,16 -45,16 -61,3 -21,-6 -28,-21 -28,-42 0,-21 -10,-25 -38,-6 -27,21 -103,95 -216,213 -113,122 -182,192 -206,217 -24,27 -158,204 -398,537 -315,130 -501,204 -549,229 -55,24 -165,88 -333,186zm-2551 823c-10,15 -48,39 -75,45 -28,9 -52,-3 -76,-12 7,-12 24,-28 52,-36 31,-13 86,-10 99,3z"/>
   <path class="fil0 str1" d="M7960 6709c0,0 0,0 0,0 0,0 0,0 0,0zm-2771 578c-68,16 -274,56 -614,126 -22,18 -43,34 -62,49 -77,60 -126,99 -151,116 -75,55 -202,113 -377,168 -172,55 -309,92 -412,107 -52,6 -107,25 -155,56 -28,17 -82,48 -79,106 -24,18 -48,37 -79,61 -58,40 -79,58 -92,83 -7,18 -14,57 4,94 16,-37 71,-31 123,-37 44,-6 89,-24 103,-27 10,0 140,-6 168,2 44,19 203,25 237,-9 62,15 107,25 144,27 42,6 138,10 285,15 117,3 213,5 282,6 17,0 34,0 48,0 110,0 304,-18 568,-51 -305,-11 -513,-18 -616,-19 -8,0 -15,0 -21,0 -103,0 -209,-3 -320,-12 -109,-9 -171,-27 -181,-54 -11,-19 24,-49 109,-88l-58 -19c48,-55 110,-107 89,-95 -24,15 -100,25 -261,58 -58,64 -195,101 -247,116 -37,16 -89,31 -147,9 -52,-14 -42,4 -42,-14 -7,-37 69,-104 93,-89l123 -22c8,-12 73,19 93,0 38,-36 234,-122 577,-253 67,-26 131,-49 192,-71 250,-91 444,-151 577,-183 175,-37 354,-58 536,-58 175,-4 274,-13 295,-28 14,-18 103,-76 271,-177 168,-98 278,-162 333,-186 48,-25 234,-99 549,-229 240,-333 374,-510 398,-537 24,-25 93,-95 206,-217 113,-118 189,-192 216,-213 28,-19 38,-15 38,6 0,21 7,36 28,42 16,13 38,13 61,-3 28,-15 45,-12 65,3 21,19 -10,82 -96,186 -82,104 -113,162 -95,174 13,18 44,15 95,-9 59,-22 93,-25 114,-3 10,21 -27,69 -117,143 -85,70 -130,113 -130,131 0,24 31,34 96,24 62,-6 96,0 96,19 1,24 -37,52 -106,82 -69,34 -113,52 -137,61 -21,10 -59,31 -120,58 -59,31 -80,49 -59,61 14,19 34,21 69,16 31,-7 51,-1 58,21 0,21 -24,36 -68,49 -42,9 -73,23 -97,39 -20,12 -55,18 -106,16 -52,-4 -79,6 -83,24 -3,22 18,36 63,45 44,13 61,25 48,43 -18,22 -76,37 -175,49 -100,13 -152,28 -155,46 -10,21 3,37 35,43 34,9 41,21 17,42 -25,22 -113,37 -255,43 110,34 169,58 172,77 11,30 -37,66 -133,106 -59,25 -179,58 -361,89 -182,33 -532,89 -576,101 42,0 247,36 377,27 134,-6 261,-15 375,-25 109,-9 356,-80 745,-214 0,-6 3,-21 13,-43 7,-21 -34,-33 -121,-39 -88,-9 -130,-22 -119,-36 10,-13 51,-13 119,-3 66,8 121,8 162,2 37,-6 89,-25 148,-46 65,-21 99,-45 109,-73 4,-27 -37,-37 -130,-33 -86,3 -130,-3 -127,-18 10,-31 79,-62 209,-86 34,-6 79,-15 137,-27 56,-9 87,-25 87,-43 0,-19 -42,-21 -114,-15 -76,9 -110,3 -110,-13 0,-15 28,-36 86,-58 41,-21 117,-52 230,-94 110,-46 168,-76 168,-92 0,-21 -24,-27 -75,-12 -45,9 -83,15 -107,15 -30,7 -69,13 -120,25 -48,9 -69,6 -62,-12 2,1 44,-19 134,-64 27,-16 103,-50 227,-101 123,-55 206,-107 247,-147 130,-115 168,-195 109,-231 -17,-10 -64,12 -147,61 -34,25 -96,55 -179,85 -79,37 -126,40 -133,22 -11,-19 44,-74 157,-159 113,-85 196,-146 243,-177 42,-33 90,-89 152,-170 58,-80 103,-135 134,-175 30,-30 41,-57 17,-85 -21,-24 -45,-33 -73,-24 -30,12 -68,46 -113,101 -48,58 -96,100 -140,128 -52,36 -118,73 -179,119 -65,40 -110,67 -130,82 -48,24 -76,15 -83,-27 -10,-43 38,-113 155,-208 41,-33 103,-94 189,-170 78,-77 147,-156 209,-232 58,-74 113,-165 164,-287 55,-116 86,-189 96,-217 7,-21 10,-58 10,-109 0,-55 -14,-82 -34,-82 -24,0 -83,73 -172,210 -89,141 -154,241 -195,293 -38,58 -117,159 -240,296 -120,137 -189,198 -206,180 -17,-15 17,-67 96,-162 34,-43 113,-180 233,-405 52,-104 93,-254 117,-442 26,-189 31,-287 9,-290 -23,-3 -75,85 -154,265 -72,177 -120,281 -141,317 -20,31 -58,98 -112,199 -56,100 -89,146 -100,131 -21,-16 -17,-68 3,-165 21,-91 38,-164 48,-219 7,-46 7,-107 -3,-186 -11,-76 -24,-113 -45,-113 -17,0 -55,92 -120,277 -31,98 -85,220 -165,370 -78,149 -168,329 -270,540 -103,210 -271,414 -494,612 -227,198 -408,338 -542,415 -138,86 -296,165 -467,232 -175,67 -288,116 -333,132 -52,18 -137,45 -265,83 -130,33 -223,57 -285,75z"/>
   <path class="fil0 str1" d="M6732 7978c-56,0 -357,-33 -532,-58 -172,-24 -202,-85 -216,-82 -10,2 -64,51 -124,129 -60,40 -109,58 -170,83 -33,9 -92,42 -225,76 -306,91 -501,143 -591,150 -62,8 -182,9 -360,2 -77,-3 -164,-8 -261,-14 -230,125 -350,201 -367,220 -38,45 -52,73 -38,88 38,49 106,46 206,-9 100,-56 168,-77 202,-74 35,9 42,34 21,74 -24,36 -17,57 17,64 38,8 86,-13 145,-65 28,-25 53,-43 75,-56 26,-16 48,-23 65,-23 31,0 38,18 24,58 -13,40 4,61 48,67 21,3 62,-12 117,-49 58,-37 100,-58 131,-64 27,0 38,21 34,61 -3,43 11,63 52,70 38,9 79,-9 123,-61 48,-49 69,-77 59,-77l47 0c28,0 49,15 69,52 21,37 62,52 124,49 38,0 62,-19 69,-52 10,-34 41,-58 96,-71 51,-5 92,7 127,46 31,40 72,55 127,46 48,-6 69,-31 58,-73 -10,-46 4,-74 41,-89 38,-15 72,-9 100,15 31,25 68,31 117,18 48,-5 69,-27 58,-60 -13,-31 10,-56 72,-70 55,-13 103,-4 144,29 38,34 93,37 151,16 52,-19 59,-43 21,-76 -41,-34 -31,-58 24,-77 51,-15 131,-24 220,-24 101,1 179,-12 230,-40 95,-56 72,-46 96,-163 -13,-35 -362,11 -426,14z"/>
   <path class="fil0 str1" d="M1252 5457c-89,-173 -154,-341 -192,-508 -35,-168 -56,-269 -63,-293 -34,-103 -65,-156 -93,-147 -37,10 -51,93 -47,254 3,165 17,274 38,341 27,61 -4,67 -76,16 -182,-317 -264,-534 -282,-627 -44,-78 -155,-221 -185,-211 -44,6 10,335 58,451 51,109 114,246 196,402 86,149 124,234 124,247 0,33 -7,48 -27,42 -21,-3 -121,-131 -303,-386 -182,-253 -278,-390 -289,-405 -44,-34 -72,-46 -79,-40 -27,12 -37,46 -30,101 13,54 24,91 30,106 7,18 66,138 179,354 118,219 282,438 492,658 59,64 41,82 -55,51 -161,-109 -330,-256 -509,-429 -85,-86 -116,-49 -96,104 186,268 389,460 609,572 123,67 175,110 158,134 -168,-61 -265,-94 -292,-103 -31,-9 -82,-28 -144,-58 -66,-28 -103,-31 -114,-9 -13,24 31,79 131,162 103,82 175,136 220,164 41,27 124,73 247,137 127,63 189,100 189,106 -10,46 -61,51 -155,25 -109,-27 -168,-28 -174,0 -8,18 17,42 72,67 55,27 96,45 130,54 24,12 72,21 135,33 65,10 99,22 99,40 0,24 -48,33 -141,37 -93,0 -141,9 -141,30 0,37 76,67 217,92l206 33c0,22 -34,40 -110,40 -79,3 -117,9 -123,27 -21,46 48,70 212,70 110,0 165,9 162,34 -8,18 -35,30 -90,37 -55,6 -78,24 -78,42 -4,40 55,73 185,91 127,21 206,34 244,43 34,12 148,57 333,127 186,71 299,113 333,116 38,3 186,9 447,24 251,15 394,6 424,-20 0,0 1,-1 2,-2 1,-1 1,-2 2,-3 1,-5 -1,-11 -2,-11 -12,-19 -77,-29 -200,-29 -158,1 -253,-2 -288,-11 -34,-9 -106,-22 -210,-40 -103,-18 -188,-52 -257,-94 -76,-43 -151,-73 -237,-94 -89,-21 -144,-31 -172,-30 -103,0 -158,-13 -165,-34 -14,-18 21,-46 110,-82 86,-37 124,-62 120,-77 -10,-18 -75,-27 -199,-24 -117,0 -189,-9 -199,-27 -17,-18 -4,-33 44,-46 45,-12 69,-30 69,-55 -7,-18 -52,-43 -134,-76 -82,-30 -120,-55 -120,-76 0,-15 20,-21 69,-12 48,9 71,3 71,-12 0,-19 -41,-40 -120,-70 -82,-28 -124,-55 -124,-76 0,-18 25,-28 69,-18 45,5 65,-1 62,-25 -4,-21 -27,-34 -79,-45 -45,-13 -79,-22 -103,-31 -27,-9 -79,-31 -165,-67 -79,-37 -117,-61 -114,-79 0,-15 32,-19 83,-6 48,12 86,12 96,-7 4,-18 -48,-67 -158,-158 -110,-88 -162,-140 -151,-158 10,-18 41,-18 103,-6 62,12 89,11 89,-7 0,-18 -34,-76 -99,-170 -69,-98 -89,-155 -63,-180 21,-15 55,-6 89,34 35,42 66,55 93,39 18,-12 21,-37 8,-64 -11,-27 -8,-45 10,-49 20,0 92,64 216,195 127,131 203,213 227,241 21,36 103,155 247,356 148,201 245,301 303,310 48,9 103,25 172,46 68,21 113,39 144,49 31,6 86,39 172,88 83,52 140,82 178,97 35,18 100,67 203,152 97,85 155,125 175,119 18,-3 104,-3 245,6 140,6 247,12 308,18 55,9 169,34 334,76 152,42 240,63 263,61 3,0 4,-1 4,-1 11,0 31,-21 66,-64 34,-39 48,-70 44,-85 -7,-18 -61,-27 -171,-27 -107,-3 -196,-9 -261,-22 -66,-6 -231,-45 -495,-118 -264,-66 -481,-149 -653,-243 -172,-91 -347,-210 -526,-362 -181,-155 -312,-267 -388,-347 -79,-79 -179,-189 -306,-323 -124,-139 -230,-295 -313,-472z"/>
   <path class="fil5 str1" d="M1754 6499c-144,-201 -226,-320 -247,-356 -24,-28 -100,-110 -227,-241 -124,-131 -196,-195 -216,-195 -18,4 -21,22 -10,49 13,27 10,52 -8,64 -27,16 -58,3 -93,-39 -34,-40 -68,-49 -89,-34 -26,25 -6,82 63,180 65,94 99,152 99,170 0,18 -27,19 -89,7 -62,-12 -93,-12 -103,6 -11,18 41,70 151,158 110,91 162,140 158,158 -10,19 -48,19 -96,7 -51,-13 -83,-9 -83,6 -3,18 35,42 114,79 86,36 138,58 165,67 24,9 58,18 103,31 52,11 75,24 79,45 3,24 -17,30 -62,25 -44,-10 -69,0 -69,18 0,21 42,48 124,76 79,30 120,51 120,70 0,15 -23,21 -71,12 -49,-9 -69,-3 -69,12 0,21 38,46 120,76 82,33 127,58 134,76 0,25 -24,43 -69,55 -48,13 -61,28 -44,46 10,18 82,27 199,27 124,-3 189,6 199,24 4,15 -34,40 -120,77 -89,36 -124,64 -110,82 7,21 62,34 165,34 28,-1 83,9 172,30 86,21 161,51 237,94 69,42 154,76 257,94 104,18 176,31 210,40 35,9 130,12 288,11 150,0 216,12 202,40 -1,1 -1,2 -2,3 -1,1 -1,2 -2,2 -47,55 943,-149 1017,-164 -23,2 -111,-19 -263,-61 -165,-42 -279,-67 -334,-76 -61,-6 -168,-12 -308,-18 -141,-9 -227,-9 -245,-6 -20,6 -78,-34 -175,-119 -103,-85 -168,-134 -203,-152 -38,-15 -95,-45 -178,-97 -86,-49 -141,-82 -172,-88 -31,-10 -76,-28 -144,-49 -69,-21 -124,-37 -172,-46 -58,-9 -155,-109 -303,-310z"/>
  </g>
 </g>
</svg>
